<?xml version="1.0" encoding="utf-8"?>
<svg xmlns="http://www.w3.org/2000/svg"
	xmlns:xlink="http://www.w3.org/1999/xlink"
	width="9px" height="16px" viewBox="0 0 9 16">
<path fillRule="evenodd" d="M 6.43 3.05C 6.43 3.05 9 3.05 9 3.05 9 3.05 9-0 9-0 9-0 6.43-0 6.43-0 4.3-0 2.57 1.79 2.57 4 2.57 4 2.57 5.54 2.57 5.54 2.57 5.54-0 5.54-0 5.54-0 5.54-0 8.6-0 8.6-0 8.6 2.57 8.6 2.57 8.6 2.57 8.6 2.57 16 2.57 16 2.57 16 5.79 16 5.79 16 5.79 16 5.79 8.6 5.79 8.6 5.79 8.6 9 8.6 9 8.6 9 8.6 9 5.54 9 5.54 9 5.54 5.79 5.54 5.79 5.54 5.79 5.54 5.79 3.97 5.79 3.97 5.79 3.44 6.13 3.05 6.43 3.05Z" fill="rgb(255,255,255)"/></svg>