<?xml version="1.0" encoding="utf-8"?>
<svg xmlns="http://www.w3.org/2000/svg"
	xmlns:xlink="http://www.w3.org/1999/xlink"
	width="14px" height="17px" viewBox="0 0 14 17">
<path fillRule="evenodd" d="M 6.38 12.3C 7.86 13.4 10.57 12.73 11.74 11.75 13.42 10.33 14.2 7.45 13.95 5.17 13.68 2.62 11.26 0.37 8.41 0.06 4.02-0.43 0.03 2.23-0 6.45-0.01 8.44 0.63 9.69 2.4 10.38 3.61 9.19 2.18 8.42 2.03 7.09 1.65 3.55 5.92 0.13 9.7 2.34 12.34 3.88 11.89 10.47 8.69 11.11 8.05 11.23 7.25 11.04 6.93 10.74 5.41 9.33 8.19 6.85 7.3 4.81 6.53 3.03 4.31 4.45 4.07 5.99 3.94 6.83 4.34 7.64 4.34 8.37 4.35 10.11 3.24 12.48 2.96 14.21 2.85 14.89 2.75 16.27 2.91 16.98 2.9 16.98 2.89 16.99 2.88 17 2.88 17 4.04 17 4.04 17 4.85 15.64 5.41 13.59 5.82 11.84 6.08 11.65 6.17 12.14 6.38 12.3Z" fill="rgb(255,255,255)"/></svg>