<?xml version="1.0" encoding="utf-8"?>
<svg xmlns="http://www.w3.org/2000/svg"
	xmlns:xlink="http://www.w3.org/1999/xlink"
	width="10px" height="13px" viewBox="0 0 10 13">
<path fillRule="evenodd" d="M 3.83 9.28C 4.16 9.6 4.55 9.75 5.01 9.75 5.01 9.75 8.32 9.75 8.32 9.75 8.78 9.75 9.18 9.91 9.51 10.23 9.83 10.55 10 10.93 10 11.38 10 11.82 9.83 12.21 9.51 12.53 9.18 12.84 8.78 13 8.32 13 8.32 13 5.01 13 5.01 13 3.63 13 2.45 12.53 1.47 11.58 0.49 10.63-0 9.48-0 8.14-0 8.14-0 1.63-0 1.63-0 1.17 0.16 0.78 0.49 0.47 0.82 0.16 1.21 0 1.68 0 2.14 0 2.53 0.16 2.86 0.48 3.19 0.8 3.35 1.18 3.35 1.63 3.35 1.63 3.35 3.99 3.35 3.99 3.35 3.99 8.07 3.99 8.07 3.99 8.5 3.99 8.86 4.13 9.17 4.43 9.47 4.73 9.63 5.08 9.63 5.49 9.63 5.91 9.47 6.26 9.17 6.56 8.87 6.85 8.5 7 8.07 7 8.07 7 3.35 7 3.35 7 3.35 7 3.35 8.14 3.35 8.14 3.35 8.59 3.51 8.97 3.83 9.28Z" fill="rgb(255,255,255)"/></svg>